<mxfile modified="2022-05-06T02:46:15.260Z" host="app.diagrams.net" agent="5.0 (Windows NT 10.0; Win64; x64) AppleWebKit/537.36 (KHTML, like Gecko) Chrome/100.0.4896.127 Safari/537.36 Edg/100.0.1185.50" etag="GLBM-u_sXzE5CZabMzoT" compressed="false" version="17.5.0" type="google">
  <diagram name="Development/Patterns/OO" id="I_drhSGoF4ltDFUVRqUW">
    <mxGraphModel grid="1" page="1" gridSize="10" guides="1" tooltips="1" connect="1" arrows="1" fold="1" pageScale="1" pageWidth="827" pageHeight="1169" math="0" shadow="0">
      <root>
        <mxCell id="Vv4NoFmh1n3RoFjSBdjZ-0" />
        <mxCell id="Vv4NoFmh1n3RoFjSBdjZ-1" value="Notes" style="" parent="Vv4NoFmh1n3RoFjSBdjZ-0" />
        <mxCell id="Vv4NoFmh1n3RoFjSBdjZ-33" value="manipulate" style="edgeStyle=none;rounded=1;jumpStyle=arc;orthogonalLoop=1;jettySize=auto;html=1;startArrow=none;startFill=0;endArrow=classic;endFill=1;strokeColor=#000000;strokeWidth=1;fontFamily=Helvetica;fontSize=12;" edge="1" parent="Vv4NoFmh1n3RoFjSBdjZ-1" source="Vv4NoFmh1n3RoFjSBdjZ-25" target="Vv4NoFmh1n3RoFjSBdjZ-26">
          <mxGeometry relative="1" as="geometry" />
        </mxCell>
        <mxCell id="Vv4NoFmh1n3RoFjSBdjZ-25" value="Service" style="rounded=0;whiteSpace=wrap;html=1;strokeColor=#000000;strokeWidth=1;fillColor=none;fontFamily=Helvetica;fontSize=12;align=center;" vertex="1" parent="Vv4NoFmh1n3RoFjSBdjZ-1">
          <mxGeometry x="120" y="200" width="80" height="40" as="geometry" />
        </mxCell>
        <mxCell id="Vv4NoFmh1n3RoFjSBdjZ-39" style="edgeStyle=none;rounded=1;jumpStyle=arc;orthogonalLoop=1;jettySize=auto;html=1;startArrow=none;startFill=0;endArrow=block;endFill=0;strokeColor=#000000;strokeWidth=1;fontFamily=Helvetica;fontSize=12;entryX=0.5;entryY=1;entryDx=0;entryDy=0;" edge="1" parent="Vv4NoFmh1n3RoFjSBdjZ-1" source="Vv4NoFmh1n3RoFjSBdjZ-26" target="Vv4NoFmh1n3RoFjSBdjZ-40">
          <mxGeometry relative="1" as="geometry">
            <mxPoint x="360" y="160" as="targetPoint" />
          </mxGeometry>
        </mxCell>
        <mxCell id="Vv4NoFmh1n3RoFjSBdjZ-41" style="edgeStyle=none;rounded=1;jumpStyle=arc;orthogonalLoop=1;jettySize=auto;html=1;startArrow=none;startFill=0;endArrow=block;endFill=0;strokeColor=#000000;strokeWidth=1;fontFamily=Helvetica;fontSize=12;exitX=0.25;exitY=1;exitDx=0;exitDy=0;entryX=0;entryY=0.75;entryDx=0;entryDy=0;" edge="1" parent="Vv4NoFmh1n3RoFjSBdjZ-1" source="Vv4NoFmh1n3RoFjSBdjZ-26" target="Vv4NoFmh1n3RoFjSBdjZ-26">
          <mxGeometry relative="1" as="geometry">
            <mxPoint x="290" y="270" as="targetPoint" />
            <Array as="points">
              <mxPoint x="340" y="250" />
              <mxPoint x="290" y="250" />
              <mxPoint x="290" y="230" />
            </Array>
          </mxGeometry>
        </mxCell>
        <mxCell id="Vv4NoFmh1n3RoFjSBdjZ-26" value="&amp;lt;&amp;lt;Object&amp;gt;&amp;gt;" style="rounded=0;whiteSpace=wrap;html=1;strokeColor=#000000;strokeWidth=1;fillColor=none;fontFamily=Helvetica;fontSize=12;align=center;fontStyle=2;dashed=1;" vertex="1" parent="Vv4NoFmh1n3RoFjSBdjZ-1">
          <mxGeometry x="320" y="200" width="80" height="40" as="geometry" />
        </mxCell>
        <mxCell id="Vv4NoFmh1n3RoFjSBdjZ-34" value="manage" style="edgeStyle=none;rounded=1;jumpStyle=arc;orthogonalLoop=1;jettySize=auto;html=1;entryX=0.5;entryY=0;entryDx=0;entryDy=0;startArrow=diamondThin;startFill=1;endArrow=none;endFill=0;strokeColor=#000000;strokeWidth=1;fontFamily=Helvetica;fontSize=12;" edge="1" parent="Vv4NoFmh1n3RoFjSBdjZ-1" source="Vv4NoFmh1n3RoFjSBdjZ-27" target="Vv4NoFmh1n3RoFjSBdjZ-28">
          <mxGeometry relative="1" as="geometry" />
        </mxCell>
        <mxCell id="Vv4NoFmh1n3RoFjSBdjZ-36" style="edgeStyle=none;rounded=1;jumpStyle=arc;orthogonalLoop=1;jettySize=auto;html=1;entryX=1;entryY=0.75;entryDx=0;entryDy=0;startArrow=none;startFill=0;endArrow=block;endFill=0;strokeColor=#000000;strokeWidth=1;fontFamily=Helvetica;fontSize=12;" edge="1" parent="Vv4NoFmh1n3RoFjSBdjZ-1" source="Vv4NoFmh1n3RoFjSBdjZ-27" target="Vv4NoFmh1n3RoFjSBdjZ-26">
          <mxGeometry relative="1" as="geometry" />
        </mxCell>
        <mxCell id="Vv4NoFmh1n3RoFjSBdjZ-27" value="Entity" style="rounded=0;whiteSpace=wrap;html=1;strokeColor=#000000;strokeWidth=1;fillColor=none;fontFamily=Helvetica;fontSize=12;align=center;" vertex="1" parent="Vv4NoFmh1n3RoFjSBdjZ-1">
          <mxGeometry x="440" y="310" width="80" height="40" as="geometry" />
        </mxCell>
        <mxCell id="Vv4NoFmh1n3RoFjSBdjZ-28" value="Value Object" style="rounded=0;whiteSpace=wrap;html=1;strokeColor=#000000;strokeWidth=1;fillColor=none;fontFamily=Helvetica;fontSize=12;align=center;" vertex="1" parent="Vv4NoFmh1n3RoFjSBdjZ-1">
          <mxGeometry x="440" y="420" width="80" height="40" as="geometry" />
        </mxCell>
        <mxCell id="Vv4NoFmh1n3RoFjSBdjZ-38" value="projections of &lt;br&gt;one or more" style="edgeStyle=none;rounded=1;jumpStyle=arc;orthogonalLoop=1;jettySize=auto;html=1;entryX=0.5;entryY=0;entryDx=0;entryDy=0;startArrow=none;startFill=0;endArrow=classic;endFill=1;strokeColor=#000000;strokeWidth=1;fontFamily=Helvetica;fontSize=12;" edge="1" parent="Vv4NoFmh1n3RoFjSBdjZ-1" source="Vv4NoFmh1n3RoFjSBdjZ-29" target="Vv4NoFmh1n3RoFjSBdjZ-27">
          <mxGeometry relative="1" as="geometry" />
        </mxCell>
        <mxCell id="Vv4NoFmh1n3RoFjSBdjZ-43" style="edgeStyle=none;rounded=1;jumpStyle=arc;orthogonalLoop=1;jettySize=auto;html=1;entryX=0.5;entryY=1;entryDx=0;entryDy=0;startArrow=none;startFill=0;endArrow=block;endFill=0;strokeColor=#000000;strokeWidth=1;fontFamily=Helvetica;fontSize=12;" edge="1" parent="Vv4NoFmh1n3RoFjSBdjZ-1" source="Vv4NoFmh1n3RoFjSBdjZ-29" target="Vv4NoFmh1n3RoFjSBdjZ-42">
          <mxGeometry relative="1" as="geometry" />
        </mxCell>
        <mxCell id="Vv4NoFmh1n3RoFjSBdjZ-29" value="DTO" style="rounded=0;whiteSpace=wrap;html=1;strokeColor=#000000;strokeWidth=1;fillColor=none;fontFamily=Helvetica;fontSize=12;align=center;" vertex="1" parent="Vv4NoFmh1n3RoFjSBdjZ-1">
          <mxGeometry x="440" y="200" width="80" height="40" as="geometry" />
        </mxCell>
        <mxCell id="Vv4NoFmh1n3RoFjSBdjZ-31" value="Objects have Properties &amp;amp; Methods - but only reference &lt;span&gt;themselves&lt;/span&gt; (no other Entity, no other Service).&lt;br&gt;May implement Contracts.&lt;br&gt;May inherit from a single superclass, but it&#39;s strongly unrecommended for maintainability reasons." style="shape=note;whiteSpace=wrap;html=1;size=14;verticalAlign=top;align=left;spacingTop=-6;rounded=1;strokeColor=#000000;strokeWidth=1;fillColor=none;fontFamily=Helvetica;fontSize=12;fontStyle=2" vertex="1" parent="Vv4NoFmh1n3RoFjSBdjZ-1">
          <mxGeometry x="320" y="260" width="100" height="220" as="geometry" />
        </mxCell>
        <mxCell id="Vv4NoFmh1n3RoFjSBdjZ-32" value="Services are context singletons that do not have Properties, but have Methods to manipulate Entities. (ie: they&#39;re instances of Helper Classes)" style="shape=note;whiteSpace=wrap;html=1;size=14;verticalAlign=top;align=left;spacingTop=-6;rounded=1;strokeColor=#000000;strokeWidth=1;fillColor=none;fontFamily=Helvetica;fontSize=12;fontStyle=2" vertex="1" parent="Vv4NoFmh1n3RoFjSBdjZ-1">
          <mxGeometry x="120" y="260" width="100" height="220" as="geometry" />
        </mxCell>
        <mxCell id="Vv4NoFmh1n3RoFjSBdjZ-35" value="Domain Transfer Objects are Special Cases of Messages for external services.&lt;br&gt;&lt;br&gt;DTOs do not expose internal storage identifiers externally to the system." style="shape=note;whiteSpace=wrap;html=1;size=14;verticalAlign=top;align=left;spacingTop=-6;rounded=1;strokeColor=#000000;strokeWidth=1;fillColor=none;fontFamily=Helvetica;fontSize=12;fontStyle=2" vertex="1" parent="Vv4NoFmh1n3RoFjSBdjZ-1">
          <mxGeometry x="540" y="160" width="140" height="120" as="geometry" />
        </mxCell>
        <mxCell id="Vv4NoFmh1n3RoFjSBdjZ-37" style="edgeStyle=none;rounded=1;jumpStyle=arc;orthogonalLoop=1;jettySize=auto;html=1;startArrow=none;startFill=0;endArrow=block;endFill=0;strokeColor=#000000;strokeWidth=1;fontFamily=Helvetica;fontSize=12;exitX=0;exitY=0.5;exitDx=0;exitDy=0;" edge="1" parent="Vv4NoFmh1n3RoFjSBdjZ-1" source="Vv4NoFmh1n3RoFjSBdjZ-29">
          <mxGeometry relative="1" as="geometry">
            <mxPoint x="450" y="250" as="sourcePoint" />
            <mxPoint x="400" y="220" as="targetPoint" />
          </mxGeometry>
        </mxCell>
        <mxCell id="Vv4NoFmh1n3RoFjSBdjZ-40" value="Contracts" style="rounded=0;whiteSpace=wrap;html=1;strokeColor=#000000;strokeWidth=1;fillColor=none;fontFamily=Helvetica;fontSize=12;align=center;fontStyle=2;dashed=1;" vertex="1" parent="Vv4NoFmh1n3RoFjSBdjZ-1">
          <mxGeometry x="320" y="80" width="80" height="40" as="geometry" />
        </mxCell>
        <mxCell id="Vv4NoFmh1n3RoFjSBdjZ-44" style="edgeStyle=none;rounded=1;jumpStyle=arc;orthogonalLoop=1;jettySize=auto;html=1;entryX=1;entryY=0.25;entryDx=0;entryDy=0;startArrow=none;startFill=0;endArrow=block;endFill=0;strokeColor=#000000;strokeWidth=1;fontFamily=Helvetica;fontSize=12;" edge="1" parent="Vv4NoFmh1n3RoFjSBdjZ-1" source="Vv4NoFmh1n3RoFjSBdjZ-42" target="Vv4NoFmh1n3RoFjSBdjZ-26">
          <mxGeometry relative="1" as="geometry" />
        </mxCell>
        <mxCell id="Vv4NoFmh1n3RoFjSBdjZ-42" value="Message" style="rounded=0;whiteSpace=wrap;html=1;strokeColor=#000000;strokeWidth=1;fillColor=none;fontFamily=Helvetica;fontSize=12;align=center;" vertex="1" parent="Vv4NoFmh1n3RoFjSBdjZ-1">
          <mxGeometry x="440" y="80" width="80" height="40" as="geometry" />
        </mxCell>
        <mxCell id="Vv4NoFmh1n3RoFjSBdjZ-45" value="Value objects are objects that have no unique Id property -- they are just sub-parts of Entities that cannot retrieved on their own.&amp;nbsp;&lt;br&gt;&lt;br&gt;Entities are often projections of DB records (at least when ORMs are used)." style="shape=note;whiteSpace=wrap;html=1;size=14;verticalAlign=top;align=left;spacingTop=-6;rounded=1;strokeColor=#000000;strokeWidth=1;fillColor=none;fontFamily=Helvetica;fontSize=12;fontStyle=2" vertex="1" parent="Vv4NoFmh1n3RoFjSBdjZ-1">
          <mxGeometry x="540" y="310" width="140" height="170" as="geometry" />
        </mxCell>
        <mxCell id="Vv4NoFmh1n3RoFjSBdjZ-12" value="Diagram" style="" parent="Vv4NoFmh1n3RoFjSBdjZ-0" />
        <mxCell id="Vv4NoFmh1n3RoFjSBdjZ-18" value="Title/Page" style="" visible="0" parent="Vv4NoFmh1n3RoFjSBdjZ-0" />
        <mxCell id="Vv4NoFmh1n3RoFjSBdjZ-19" value="" style="group;fontSize=10;" vertex="1" connectable="0" parent="Vv4NoFmh1n3RoFjSBdjZ-18">
          <mxGeometry x="120" y="120" width="560" height="35" as="geometry" />
        </mxCell>
        <mxCell id="Vv4NoFmh1n3RoFjSBdjZ-20" value="&lt;font style=&quot;font-size: 12px&quot;&gt;Base Logical Module - Development - Object Oriented (OO) Development Patterns - SOLID&lt;/font&gt;" style="text;strokeColor=none;fillColor=none;html=1;fontSize=24;fontStyle=1;verticalAlign=middle;align=left;shadow=0;glass=0;comic=0;opacity=30;fontColor=#808080;" vertex="1" parent="Vv4NoFmh1n3RoFjSBdjZ-19">
          <mxGeometry width="560" height="40" as="geometry" />
        </mxCell>
        <mxCell id="Vv4NoFmh1n3RoFjSBdjZ-21" value="" style="line;strokeWidth=2;html=1;shadow=0;glass=0;comic=0;fillColor=none;fontSize=10;fontColor=#CCCCCC;labelBackgroundColor=none;strokeColor=#CCCCCC;" vertex="1" parent="Vv4NoFmh1n3RoFjSBdjZ-19">
          <mxGeometry y="35" width="560" height="10" as="geometry" />
        </mxCell>
        <mxCell id="Vv4NoFmh1n3RoFjSBdjZ-22" value="SOLID is arguably the most valuable pattern of all for developers to follow." style="text;html=1;strokeColor=none;fillColor=none;align=center;verticalAlign=middle;whiteSpace=wrap;rounded=0;fontFamily=Helvetica;fontSize=12;fontColor=#000000;" vertex="1" parent="Vv4NoFmh1n3RoFjSBdjZ-18">
          <mxGeometry x="120" y="170" width="560" height="20" as="geometry" />
        </mxCell>
        <mxCell id="Vv4NoFmh1n3RoFjSBdjZ-23" value="Title/Diagram" parent="Vv4NoFmh1n3RoFjSBdjZ-0" />
        <mxCell id="Vv4NoFmh1n3RoFjSBdjZ-24" value="&lt;font style=&quot;font-size: 12px ; font-weight: normal&quot;&gt;&lt;i&gt;Diagram: Development - Object Oriented (OO) Development Concepts&lt;/i&gt;&lt;/font&gt;" style="text;strokeColor=none;fillColor=none;html=1;fontSize=24;fontStyle=1;verticalAlign=middle;align=left;shadow=0;glass=0;comic=0;opacity=30;fontColor=#808080;" vertex="1" parent="Vv4NoFmh1n3RoFjSBdjZ-23">
          <mxGeometry x="120" y="500" width="520" height="20" as="geometry" />
        </mxCell>
      </root>
    </mxGraphModel>
  </diagram>
</mxfile>
